<?xml version="1.0" standalone="no"?>
<!DOCTYPE svg PUBLIC "-//W3C//DTD SVG 20010904//EN"
 "http://www.w3.org/TR/2001/REC-SVG-20010904/DTD/svg10.dtd">
<svg version="1.0" xmlns="http://www.w3.org/2000/svg"
 width="300.000000pt" height="300.000000pt" viewBox="0 0 300.000000 300.000000"
 preserveAspectRatio="xMidYMid meet">
<metadata>
Created by potrace 1.11, written by Peter Selinger 2001-2013
</metadata>
<g transform="translate(0.000000,300.000000) scale(0.100000,-0.100000)"
fill="#000000" stroke="none">
<path d="M1464 2596 c-29 -29 -34 -41 -34 -81 0 -47 13 -67 84 -123 31 -25 17
-38 -53 -50 -74 -12 -157 -45 -214 -84 l-34 -23 18 -43 18 -43 41 21 c83 42
194 61 391 67 l187 6 6 40 c4 22 5 41 3 44 -12 11 -153 33 -218 33 -61 0 -78
3 -83 16 -9 22 -9 22 24 39 36 19 60 62 60 111 0 28 -8 44 -34 70 -29 29 -41
34 -81 34 -40 0 -52 -5 -81 -34z"/>
<path d="M1590 2209 c-489 -55 -832 -285 -947 -634 -35 -108 -43 -307 -16
-434 21 -99 2 -89 218 -121 419 -62 951 -22 1315 100 172 58 457 201 483 241
14 23 -156 353 -239 464 -160 213 -336 339 -533 381 -72 15 -165 16 -281 3z
m-297 -314 c207 -54 306 -280 202 -460 -33 -56 -92 -110 -150 -137 -69 -31
-190 -32 -257 -1 -69 32 -131 94 -162 163 -81 180 26 393 221 439 56 13 83 13
146 -4z m892 -6 c23 -7 57 -28 81 -53 145 -144 15 -370 -191 -332 -44 9 -100
56 -127 109 -42 83 -7 204 73 251 60 36 102 42 164 25z"/>
<path d="M2710 2165 c-17 -20 -32 -87 -35 -150 -4 -75 -4 -75 -26 -83 -17 -7
-31 2 -78 51 -47 50 -158 137 -175 137 -2 0 -27 -27 -55 -61 l-51 -61 79 -84
c81 -86 171 -211 212 -297 13 -26 26 -46 29 -45 39 17 160 95 160 103 0 6 -25
53 -56 105 -35 60 -51 96 -43 99 31 10 51 43 48 84 -3 75 -2 77 36 77 69 0
108 71 65 118 -25 26 -91 30 -110 7z"/>
<path d="M205 1885 c-14 -13 -25 -35 -25 -48 0 -33 35 -67 69 -67 16 0 34 -7
41 -15 8 -9 30 -15 59 -15 44 -1 47 -3 74 -46 l27 -46 -20 -66 c-12 -37 -24
-101 -27 -142 l-5 -75 82 -28 c45 -16 83 -27 86 -24 2 2 9 53 14 113 15 165
47 253 136 369 l33 44 -40 32 -40 31 -47 -39 c-26 -22 -67 -67 -92 -101 -25
-33 -47 -61 -50 -61 -3 -1 -14 18 -25 42 -19 41 -22 42 -75 47 l-55 5 3 36 c3
30 -2 40 -24 58 -35 28 -69 27 -99 -4z"/>
<path d="M2601 1283 c-81 -53 -294 -157 -396 -193 -130 -45 -372 -105 -505
-125 -154 -22 -454 -30 -609 -16 -68 6 -193 25 -278 42 -85 16 -157 29 -159
27 -2 -2 10 -41 25 -86 79 -228 262 -416 464 -476 142 -43 202 -50 402 -50
157 0 208 4 295 23 216 46 367 111 508 218 189 144 298 345 310 570 3 57 3
103 1 102 -2 0 -28 -17 -58 -36z"/>
</g>
</svg>
